<svg width="300" height="300" viewBox="0 0 300 300" fill="none" xmlns="http://www.w3.org/2000/svg">
<path fill-rule="evenodd" clip-rule="evenodd" d="M210.817 92.0956L210.865 97.4724L210.599 97.1072C209.606 95.7427 209.066 95.2593 207.974 94.7532C207.039 94.3204 206.41 94.1778 205.21 94.1266C202.098 93.9937 199.865 95.1245 198.308 97.6222C197.298 99.2432 196.803 101.161 196.802 103.459C196.8 106.256 197.567 108.614 199.033 110.321C200.913 112.509 203.911 113.327 207.099 112.522C208.486 112.172 209.617 111.356 210.413 110.131C210.628 109.8 210.831 109.528 210.864 109.527C210.898 109.526 210.925 110.146 210.925 110.904V112.284H212.549H214.172V107.55C214.172 104.946 214.148 99.1936 214.118 94.767L214.064 86.7188H212.416H210.768L210.817 92.0956ZM35.6056 100.111C35.6277 107.871 35.6715 112.88 35.7178 112.92C35.7595 112.956 36.4969 112.97 37.3562 112.951L38.9188 112.916V103.077C38.9188 97.6656 38.8946 91.9173 38.8651 90.3031L38.8114 87.368H37.1903H35.5693L35.6056 100.111ZM99.3119 94.6521C99.3119 98.2566 99.3362 103.809 99.3658 106.99L99.4197 112.774L101.172 112.752L102.924 112.73L102.924 107.475L102.923 102.22L103.776 102.215C104.245 102.212 104.998 102.191 105.448 102.169L106.268 102.129L106.821 102.601C107.522 103.198 108.614 104.432 109.148 105.23C109.374 105.568 110.443 107.376 111.523 109.247L113.487 112.649L115.465 112.671C116.553 112.683 117.468 112.665 117.499 112.63C117.549 112.574 116.312 110.431 113.741 106.116C112.203 103.534 111.239 102.307 110.422 101.89C110.255 101.805 110.1 101.705 110.077 101.668C110.054 101.63 110.316 101.484 110.66 101.344C113.079 100.352 114.727 98.4933 115.35 96.0521C115.549 95.2736 115.529 93.7645 115.308 92.9275C114.715 90.676 113.045 88.9684 110.907 88.4284C109.774 88.142 108.864 88.0985 104.023 88.0985H99.3119L99.3119 94.6521ZM18.3052 88.5332C18.244 88.6942 16.3076 93.1 10.7915 105.629C8.17091 111.581 7.5859 112.92 7.5859 112.964C7.5859 112.992 8.32563 113.014 9.22966 113.014L10.8734 113.013L11.8818 110.721C12.4364 109.46 13.105 107.95 13.3677 107.365L13.8453 106.3L15.241 106.256C16.0087 106.231 18.6305 106.207 21.0673 106.203L25.498 106.195L26.3627 108.286C26.8382 109.436 27.4589 110.943 27.7421 111.635L28.2567 112.893L30.1785 112.915C31.3419 112.928 32.1003 112.906 32.1003 112.86C32.1003 112.818 31.8953 112.297 31.6447 111.702C31.2288 110.714 30.7353 109.525 29.058 105.467C28.1106 103.174 25.9862 98.0476 25.0392 95.7681C24.1244 93.566 23.3798 91.7671 22.5028 89.6405L21.984 88.3825L20.1816 88.3607L18.3791 88.3389L18.3052 88.5332ZM108.437 90.8158C109.924 91.0807 111.025 91.9941 111.57 93.4144C111.838 94.1122 111.843 95.4474 111.58 96.2493C111.338 96.9872 111.135 97.3762 110.708 97.9203C110.101 98.6946 109.445 99.1172 108.419 99.3959C107.869 99.5451 107.501 99.5698 105.339 99.603L102.883 99.6405V95.1681V90.6956L105.339 90.6984C107.084 90.7005 107.981 90.7344 108.437 90.8158ZM20.1093 93.2115C20.2244 93.5017 20.8713 95.0721 21.5467 96.7014C23.7004 101.896 24.3888 103.574 24.3888 103.628C24.3888 103.657 22.2663 103.681 19.6721 103.681C15.9315 103.681 14.9636 103.66 14.9952 103.58C15.0171 103.524 15.4083 102.62 15.8647 101.571C16.3211 100.522 17.2422 98.4037 17.9117 96.8637C18.5812 95.3237 19.2773 93.7245 19.4585 93.3097C19.6397 92.8951 19.8131 92.5847 19.844 92.6199C19.8748 92.6552 19.9942 92.9214 20.1093 93.2115ZM224.71 94.1108C223.697 94.218 222.707 94.4903 221.884 94.8877C221.22 95.208 221.01 95.3638 220.381 96.0011C219.243 97.1542 218.822 98.1728 218.901 99.5826C218.994 101.228 219.815 102.326 221.6 103.192C222.233 103.5 223.025 103.757 225.212 104.367C226.945 104.85 228.235 105.256 228.596 105.431C230.193 106.206 230.462 107.685 229.231 108.926C228.314 109.85 227.278 110.202 225.496 110.195C223.725 110.188 222.791 109.894 222.118 109.13C221.812 108.782 221.559 108.165 221.559 107.765V107.577H219.889H218.219L218.276 108.043C218.5 109.882 219.675 111.282 221.703 112.126C222.853 112.604 223.647 112.726 225.618 112.724C227.104 112.722 227.48 112.696 228.154 112.546C229.733 112.196 230.699 111.685 231.717 110.662C232.279 110.097 232.485 109.821 232.749 109.274C233.455 107.814 233.521 106.138 232.922 104.872C232.477 103.931 231.347 103.076 229.96 102.631C229.2 102.387 227.697 101.977 225.514 101.416C223.426 100.88 222.601 100.454 222.281 99.7507C221.974 99.0745 222.128 98.3524 222.716 97.7083C223.425 96.9329 224.385 96.622 226.064 96.6245C227.177 96.6262 227.855 96.7481 228.496 97.0614C229.06 97.3372 229.41 97.7528 229.482 98.2306L229.536 98.5932L231.161 98.5407C232.055 98.5118 232.805 98.4703 232.827 98.4483C232.926 98.3491 232.659 97.2624 232.419 96.7841C232.029 96.0103 231.165 95.1603 230.401 94.798C229.023 94.1453 226.856 93.8835 224.71 94.1108ZM191.809 94.1898C189.998 94.4724 188.278 95.5472 187.242 97.043L186.922 97.5063L186.87 96.8401C186.841 96.4737 186.818 95.8361 186.817 95.4231L186.817 94.6724H185.193H183.569L183.59 103.539L183.61 112.406H185.234H186.857L186.901 107.09L186.945 101.774L187.157 100.997C187.602 99.3628 188.318 98.4418 189.762 97.6463C190.893 97.0228 192.292 96.8994 193.657 97.3027C194.048 97.4184 194.387 97.513 194.41 97.513C194.432 97.513 194.441 96.81 194.429 95.9507L194.406 94.3884L194.001 94.287C193.435 94.1458 192.388 94.0993 191.809 94.1898ZM148.758 94.3558C143.699 94.7863 140.818 98.4752 141.062 104.209C141.16 106.511 141.655 108.208 142.659 109.687C143.84 111.426 145.586 112.497 147.884 112.891C148.836 113.054 150.931 113.054 151.881 112.891C154.787 112.391 156.957 110.557 157.23 108.367L157.288 107.901H155.626H153.964L153.914 108.267C153.842 108.791 153.604 109.205 153.13 109.631C152.642 110.07 152.109 110.287 151.188 110.421C149.293 110.698 147.551 110.211 146.299 109.055C145.214 108.053 144.724 106.836 144.521 104.647C144.353 102.831 144.629 100.947 145.251 99.6663C145.839 98.4573 147.01 97.5069 148.462 97.059C149.215 96.8269 151.178 96.843 151.963 97.0877C153.101 97.4426 153.775 98.1024 153.843 98.9305L153.881 99.3797H155.535H157.188V98.9713C157.188 97.3399 155.569 95.5911 153.351 94.8276C152.11 94.4004 150.353 94.2199 148.758 94.3558ZM168.066 94.3945C165.173 94.9188 162.697 96.6987 161.652 99.0033C161.037 100.363 160.804 101.624 160.804 103.6C160.804 106.094 161.218 107.712 162.255 109.271C162.685 109.916 163.69 110.907 164.403 111.387C167.211 113.28 171.242 113.524 174.275 111.985C176.338 110.938 177.71 109.385 178.403 107.31C178.805 106.106 178.898 105.407 178.895 103.6C178.891 101.75 178.763 100.906 178.288 99.5933C177.302 96.8684 174.649 94.8453 171.419 94.3552C170.637 94.2366 168.819 94.2579 168.066 94.3945ZM128.007 94.4306C126.13 94.6729 124.552 95.4046 123.195 96.6612C121.79 97.9617 120.885 99.6064 120.449 101.652C120.243 102.619 120.241 104.971 120.445 105.988C121.066 109.088 122.922 111.431 125.571 112.458C126.522 112.826 127.528 113.013 128.859 113.069C132.038 113.202 134.532 112.332 135.977 110.585C136.585 109.849 136.909 109.146 136.959 108.453L136.998 107.901H135.373H133.748L133.69 108.285C133.611 108.815 133.403 109.187 132.959 109.596C132.239 110.26 131.368 110.51 129.752 110.516C127.779 110.524 126.567 110.079 125.402 108.92C124.253 107.776 123.717 106.571 123.535 104.716L123.481 104.168L129.762 104.168C133.216 104.167 136.295 104.143 136.603 104.114L137.163 104.061L137.109 102.753C137.023 100.643 136.787 99.4748 136.208 98.2796C135.254 96.3114 133.667 95.0975 131.375 94.5828C130.569 94.4017 128.836 94.3234 128.007 94.4306ZM72.7681 94.7057C69.0561 95.3685 66.34 98.1013 65.5776 101.941C65.3591 103.041 65.3787 105.229 65.6172 106.359C66.3119 109.651 68.4826 112.089 71.4694 112.931C73.5088 113.507 76.2105 113.447 78.1321 112.783C79.7968 112.209 81.1319 111.119 81.7855 109.803C82.0133 109.344 82.2285 108.363 82.1348 108.212C82.1121 108.175 81.3701 108.145 80.4859 108.145H78.8782L78.8282 108.51C78.698 109.46 77.8955 110.231 76.6645 110.59C76.1616 110.737 73.6895 110.738 73.0928 110.592C72.3758 110.417 71.2331 109.823 70.7119 109.356C69.5376 108.303 68.8826 106.881 68.6678 104.919L68.6124 104.412H72.0163C73.8885 104.412 76.9604 104.387 78.8428 104.358L82.2654 104.304V103.404C82.2654 101.195 81.8713 99.3471 81.1207 98.0354C80.2169 96.456 78.7281 95.3732 76.7553 94.8605C75.7857 94.6086 73.754 94.5297 72.7681 94.7057ZM50.9325 94.7615C48.9166 95.0784 46.6898 96.2745 45.5124 97.6731C44.3203 99.0891 43.738 100.656 43.5523 102.95C43.4629 104.054 43.5503 105.654 43.753 106.621C44.3138 109.298 45.7885 111.183 48.3008 112.433C49.6072 113.084 50.8194 113.339 52.5966 113.339C54.3737 113.339 55.5859 113.084 56.8923 112.433C59.3642 111.203 60.8303 109.357 61.4163 106.736C61.6262 105.797 61.7147 103.212 61.5714 102.202C61.4418 101.287 61.1352 100.149 60.8469 99.5134C59.7444 97.082 57.3286 95.2982 54.4635 94.8C53.6706 94.6621 51.7019 94.6407 50.9325 94.7615ZM206.559 96.7375C208.683 97.1162 210.089 98.744 210.697 101.53C210.766 101.846 210.801 102.559 210.795 103.559C210.788 104.94 210.765 105.182 210.58 105.872C210.281 106.989 210.072 107.495 209.635 108.164C209.144 108.916 208.544 109.442 207.719 109.843C206.881 110.25 206.359 110.366 205.389 110.36C204.407 110.353 203.924 110.244 203.066 109.836C201.557 109.118 200.742 107.849 200.364 105.629C200.209 104.72 200.228 102.098 200.395 101.27C200.559 100.463 200.931 99.4745 201.276 98.9298C201.943 97.877 203.294 96.9649 204.513 96.7448C205.303 96.6022 205.79 96.6004 206.559 96.7375ZM170.907 96.9029C172.937 97.256 174.513 98.7883 175.166 101.045C175.55 102.368 175.607 104.088 175.317 105.588C174.877 107.86 173.507 109.546 171.571 110.195C171.108 110.35 170.857 110.377 169.852 110.376C168.838 110.375 168.599 110.349 168.135 110.19C166.776 109.722 165.691 108.745 164.993 107.357C164.18 105.745 163.973 103.138 164.5 101.165C165.102 98.9113 166.773 97.2409 168.76 96.9076C169.629 96.7616 170.089 96.7606 170.907 96.9029ZM130.515 97.1052C130.86 97.1934 131.368 97.3842 131.644 97.5292C132.926 98.2026 133.888 99.8197 133.891 101.307L133.892 101.814H128.82H123.749L123.799 101.551C123.892 101.061 124.301 100.03 124.594 99.5481C125.328 98.3399 126.519 97.4169 127.804 97.0607C128.395 96.8967 129.789 96.9196 130.515 97.1052ZM75.7423 97.3536C77.2538 97.7401 78.2847 98.7242 78.8066 100.279C78.9271 100.638 79.0222 101.126 79.0359 101.455L79.0591 102.017L73.9673 102.038L68.8756 102.059L68.9246 101.795C69.0282 101.236 69.502 100.12 69.8724 99.5633C70.7223 98.285 72.1076 97.3767 73.5393 97.1591C73.9743 97.093 75.118 97.1939 75.7423 97.3536ZM54.1794 97.3943C56.0478 97.9565 57.4308 99.5231 58.01 101.733C58.1655 102.327 58.1913 102.638 58.1941 103.965C58.1968 105.169 58.1662 105.636 58.0547 106.095C57.343 109.022 55.5198 110.68 52.8807 110.8C49.166 110.969 46.773 108.006 46.9802 103.495C47.0592 101.775 47.4605 100.503 48.2914 99.3389C49.0847 98.2275 50.3484 97.4499 51.7036 97.2394C52.187 97.1643 53.7376 97.2613 54.1794 97.3943ZM7.14853 118.797C7.12077 118.898 7.07483 120.459 7.04634 122.267C6.94942 128.419 7.32257 136.86 8.07619 145.56C8.29365 148.071 8.45924 149.763 8.76673 152.621C10.3298 167.142 12.9336 181.489 16.2727 193.977C16.3613 194.309 16.5092 194.863 16.6013 195.209C17.9262 200.184 20.105 207.286 21.7244 211.908C26.4921 225.515 32.4787 238.314 36.3079 243.086C36.6603 243.525 37.0571 243.986 37.1898 244.11L37.431 244.336L40.9957 242.579C42.9563 241.612 45.6197 240.301 46.9144 239.664C48.2091 239.028 50.8757 237.713 52.8401 236.743C54.8045 235.772 57.398 234.494 58.6034 233.902C59.8088 233.31 62.4754 231.995 64.529 230.98C66.5827 229.965 69.2128 228.669 70.3735 228.099C71.5343 227.53 74.1643 226.233 76.218 225.218C78.2717 224.203 80.8652 222.924 81.9813 222.377C83.0975 221.83 85.764 220.515 87.907 219.455C90.05 218.396 92.6435 217.118 93.6703 216.615C94.6971 216.112 97.2906 214.834 99.4336 213.774C101.577 212.715 104.316 211.363 105.522 210.771C106.727 210.18 109.247 208.938 111.123 208.012C112.998 207.086 115.737 205.735 117.211 205.009C120.618 203.331 124.807 201.267 128.737 199.328C130.434 198.491 133.027 197.213 134.501 196.487C135.974 195.762 138.604 194.465 140.345 193.606C143.817 191.893 147.935 189.863 152.196 187.763C153.714 187.015 156.381 185.7 158.122 184.841C159.863 183.982 162.457 182.704 163.885 182C165.314 181.297 167.981 179.982 169.811 179.079C171.641 178.175 174.235 176.897 175.574 176.238C176.914 175.579 179.617 174.246 181.581 173.276C183.545 172.305 186.249 170.972 187.588 170.313C188.927 169.655 191.484 168.395 193.27 167.513C195.056 166.632 197.722 165.317 199.196 164.592C200.669 163.866 203.299 162.57 205.04 161.711C206.781 160.852 209.411 159.555 210.885 158.829C212.358 158.104 214.988 156.807 216.729 155.948C218.47 155.089 221.1 153.793 222.574 153.067C224.047 152.341 226.64 151.063 228.337 150.226C230.034 149.39 232.7 148.075 234.263 147.305C235.825 146.534 238.492 145.22 240.188 144.383C241.885 143.546 244.442 142.286 245.87 141.583C247.299 140.88 250.002 139.547 251.877 138.621C253.752 137.694 256.309 136.434 257.559 135.82C258.809 135.206 261.586 133.837 263.729 132.777C265.872 131.717 268.392 130.476 269.33 130.018C270.267 129.56 272.952 128.238 275.296 127.08C277.64 125.923 281.11 124.212 283.007 123.278C284.905 122.344 287.79 120.915 289.42 120.102L292.383 118.625L149.791 118.62L7.19894 118.615L7.14853 118.797Z" fill="black"/>
</svg>
